<?xml version="1.0" encoding="UTF-8"?>
<svg id="katman_1" data-name="katman 1" xmlns="http://www.w3.org/2000/svg" viewBox="0 0 24.45 24.45">
  <defs>
    <style>
      .cls-1 {
        fill: none;
      }

      .cls-2 {
        fill: #252321;
      }
    </style>
  </defs>
  <path class="cls-2" d="M0,0v24.45h24.45V0H0ZM18.28,20.35h-7.46v1.4h-4.65v-7.82.02c.06-.84.25-1.59.59-2.24.4-.75.89-1.37,1.47-1.87.59-.5,1.22-.88,1.91-1.12.68-.24,1.31-.37,1.89-.37h.87v3.26c-.26.03-.51.07-.74.15-.36.12-.63.24-.8.37-.32.28-.53.59-.64.93-.11.34-.17.76-.19,1.25v1.09l-1.6.9h4.71V7.47c0-.45-.12-.71-.35-.77-.24-.06-.44-.1-.61-.1h-6.31v-3.91h8.04c1.47,0,2.49.37,3.04,1.12.55.75.83,1.73.83,2.95v13.58Z"/>
  <rect class="cls-1" x="-174.58" y="-601.42" width="595.28" height="841.89"/>
</svg>