<?xml version="1.0" encoding="UTF-8"?>
<svg id="katman_1" data-name="katman 1" xmlns="http://www.w3.org/2000/svg" viewBox="0 0 170.89 30.35">
  <defs>
    <style>
      .cls-1 {
        fill: none;
      }

      .cls-2 {
        fill: #FFFFFF;
      }
    </style>
  </defs>
  <g>
    <path class="cls-2" d="M146.43,0v24.45h24.45V0h-24.45ZM164.71,20.35h-7.46v1.4h-4.65v-7.82.02c.06-.84.25-1.59.59-2.24.4-.75.89-1.37,1.47-1.87.59-.5,1.22-.88,1.91-1.12.68-.24,1.31-.37,1.89-.37h.87v3.26c-.26.03-.51.07-.74.15-.36.12-.63.24-.8.37-.32.28-.53.59-.64.93-.11.34-.17.76-.19,1.25v1.09l-1.6.9h4.71V7.47c0-.45-.12-.71-.35-.77-.24-.06-.44-.1-.61-.1h-6.31v-3.91h8.04c1.47,0,2.49.37,3.04,1.12.55.75.83,1.73.83,2.95v13.58Z"/>
    <rect class="cls-2" x="14.51" y=".81" width="4.77" height="23.35"/>
    <path class="cls-2" d="M34.02,19.65c0,.9-.14,1.63-.42,2.21-.28.58-.63,1.04-1.06,1.38-.43.34-.9.58-1.41.72-.51.14-.99.21-1.44.21h-3.3v5.7h-4.65V6.51h7.94c.83,0,1.52.14,2.07.42.54.28.99.63,1.33,1.06.34.43.58.91.72,1.44.14.54.21,1.06.21,1.57v8.65ZM29.67,11.7c0-.26-.09-.51-.26-.75-.17-.25-.52-.37-1.06-.37h-1.95v8.39l-1.83,1.38h3.78c.49,0,.83-.11,1.03-.34.19-.22.29-.48.29-.78v-7.53Z"/>
    <path class="cls-2" d="M48.57,26.28c0,1.22-.28,2.2-.83,2.95-.56.75-1.57,1.12-3.04,1.12h-7.59v-3.91h5.83c.19,0,.4-.03.64-.1.23-.06.35-.32.35-.77v-1.41h-2.95c-.58,0-1.14-.06-1.68-.18-.55-.12-1.03-.34-1.44-.67-.42-.33-.75-.8-1.01-1.41-.26-.61-.38-1.42-.38-2.42v-8.5c0-1.54.39-2.67,1.17-3.4.78-.73,1.83-1.09,3.16-1.09h7.78v19.8ZM43.92,10.55h-1.79c-.34,0-.65.1-.91.29-.27.19-.4.47-.4.83v7.3l-1.63,1.12h4.74v-9.55Z"/>
    <path class="cls-2" d="M61,6.93c.56.28,1,.63,1.35,1.06.34.43.58.91.72,1.46.14.54.21,1.07.21,1.59v2.56h-4.36v-1.89c0-.26-.09-.51-.26-.75-.17-.25-.52-.37-1.06-.37h-1.95v13.58h-4.65V6.51h7.91c.83,0,1.53.14,2.08.42"/>
    <path class="cls-2" d="M77.62,24.16h-7.79c-1.32,0-2.38-.37-3.15-1.11-.78-.74-1.17-1.87-1.17-3.41v-1.51c0-1,.2-1.88.59-2.63.4-.75.89-1.37,1.47-1.87.59-.5,1.22-.88,1.91-1.12.68-.25,1.31-.37,1.89-.37h1.6v-.86c0-.45-.12-.7-.35-.77-.24-.06-.44-.1-.61-.1h-6.31v-3.91h8.04c1.47,0,2.49.37,3.04,1.12.56.75.83,1.73.83,2.95v13.58ZM72.98,15.39h-.29c-.43,0-.82.06-1.19.18-.36.12-.63.24-.8.37-.32.28-.53.59-.64.93-.11.34-.17.76-.19,1.25v1.09l-1.6.9h4.71v-4.71Z"/>
    <path class="cls-2" d="M92.29,19.65c0,.9-.14,1.63-.42,2.21-.28.58-.63,1.04-1.06,1.38-.43.34-.9.58-1.41.72-.51.14-.99.21-1.44.21h-3.3v5.7h-4.64V6.51h7.94c.83,0,1.52.14,2.07.42.54.28.99.63,1.33,1.06.34.43.58.91.72,1.44.14.54.21,1.06.21,1.57v8.65ZM87.94,11.7c0-.26-.09-.51-.26-.75-.17-.25-.52-.37-1.06-.37h-1.95v8.39l-1.83,1.38h3.78c.49,0,.83-.11,1.03-.34.19-.22.29-.48.29-.78v-7.53Z"/>
    <path class="cls-2" d="M94.73,23.87V.51h4.61v4.64l-1.6,1.06h4.9c.47,0,.96.07,1.47.21.51.14.97.38,1.4.72.43.34.78.8,1.07,1.38.28.58.42,1.3.42,2.18v13.17h-4.36v-12.72c0-.3-.1-.56-.29-.78-.19-.22-.54-.34-1.03-.34h-1.99v13.84h-4.61Z"/>
    <path class="cls-2" d="M109.4,3.18c0-.66.23-1.22.69-1.68.46-.46,1.03-.69,1.69-.69s1.23.23,1.69.69c.46.46.69,1.02.69,1.68s-.23,1.19-.69,1.65c-.46.46-1.03.69-1.69.69s-1.23-.23-1.69-.69-.69-1.01-.69-1.65M114.11,6.51h-4.65v17.65h4.65V6.51Z"/>
    <path class="cls-2" d="M129.01,24.16h-7.79c-.66,0-1.26-.12-1.79-.35-.53-.24-.99-.56-1.36-.96-.37-.4-.66-.88-.87-1.44-.2-.56-.3-1.14-.3-1.76v-8.65c0-.83.14-1.53.43-2.1.29-.57.65-1.03,1.09-1.38.44-.35.91-.61,1.41-.77.5-.16.97-.24,1.39-.24h7.79v4l-4.23,2.37v-2.31h-3.11v8.56l-1.76.96h4.87v-2.18h4.23v6.25Z"/>
    <path class="cls-2" d="M11.28,7.63c-.56-.75-1.57-1.12-3.04-1.12H.19v3.91h6.31c.17,0,.37.03.61.1.24.06.35.32.35.77v8.81H2.76l1.6-.9v-1.09c.02-.49.08-.91.19-1.25.11-.34.32-.65.64-.93.17-.13.44-.25.8-.37.23-.08.48-.12.74-.15v-3.26h-.87c-.58,0-1.21.12-1.89.37-.68.25-1.32.62-1.91,1.12-.59.5-1.08,1.13-1.47,1.87-.34.65-.54,1.4-.58,2.24v-.02s-.01.4-.01.4v7.42h4.65v-1.4h7.46v-13.58c0-1.22-.28-2.2-.83-2.95"/>
    <path class="cls-2" d="M139.6,12.92v-1.56c0-.3-.06-.55-.18-.75-.12-.2-.42-.3-.91-.3h-1.31c-.36,0-.6.08-.7.24-.11.16-.16.37-.16.62v.41c0,.38.18.79.53,1.23.35.43,1.02.84,2.02,1.23.02.02.2.1.53.22.33.13.71.29,1.13.49.43.2.85.44,1.27.72.43.28.75.57.99.89.28.36.48.75.62,1.18.14.42.21.96.21,1.59v1.24c-.04.45-.15.89-.33,1.34-.18.45-.45.85-.81,1.21-.36.36-.83.65-1.42.88-.58.22-1.29.35-2.12.37h-3.16c-.76,0-1.41-.13-1.93-.38-.52-.25-.94-.59-1.24-1-.31-.41-.53-.86-.65-1.35-.13-.49-.19-.98-.19-1.46v-2.2h4.05v1.56l-1.72.99h3.98c.66,0,.99-.35.99-1.05,0-.23-.04-.43-.11-.57-.07-.15-.2-.28-.37-.4-.17-.12-.41-.24-.73-.37-.32-.13-.71-.29-1.18-.48-.89-.34-1.65-.71-2.28-1.12-.63-.4-1.14-.84-1.53-1.32-.39-.48-.68-1.01-.84-1.61-.17-.59-.26-1.26-.26-2.01v-.99c.04-.68.21-1.26.51-1.75.3-.49.67-.89,1.12-1.21.45-.32.94-.55,1.48-.7.54-.15,1.08-.22,1.61-.22h3.12c.76,0,1.41.13,1.93.38.52.26.93.59,1.24.99.31.4.53.85.65,1.35.13.5.19.99.19,1.48v2.2h-4.05Z"/>
  </g>
  <rect class="cls-1" x="-57.8" y="-751.87" width="595.28" height="841.89"/>
</svg>